<svg width="456" height="75" viewBox="0 0 456 75" xmlns="http://www.w3.org/2000/svg">
    
    <style>
        /* Keyframe animation definitions */
        @keyframes draw {
            to {
                /* Reveal the line by bringing the offset back to 0 */
                stroke-dashoffset: 0;
            }
        }

        @keyframes fillIn {
            to {
                /* Fade the fill in after the outline has drawn */
                fill-opacity: 1;
            }
        }
        
        /* Apply styling and animation setup to ALL path elements */
        path {
            /* Keep the same gradient for fill, but hide it until the stroke is drawn */
            fill: url(#paint0_linear_1_4);
            fill-opacity: 0;
            
            /* Visual styling for the line */
            stroke-width: 5; 
            stroke-linecap: round;
            stroke-linejoin: round;
            
            /* Animation Setup using L_MAX = 923.14 */
            /* Sets the dash and the offset equal to the longest path length, hiding it */
            stroke-dasharray: 923.14; 
            stroke-dashoffset: 923.14; 
            
            /* First draw the outline, then fade the fill in */
            animation: draw 4s ease-out forwards, fillIn 0.8s ease-out forwards 2s;
        }
    </style>

    <path stroke="url(#paint0_linear_1_4)" fill-rule="evenodd" clip-rule="evenodd" d="M70.2861 2.32031C71.3818 2.32031 72.252 2.70703 72.8965 3.48047C73.6055 4.18945 74.1211 5.05957 74.4434 6.09082C74.8301 7.12207 75.0557 8.21777 75.1201 9.37793C75.1846 10.4736 75.2168 11.376 75.2168 12.085C75.2168 13.6963 75.0879 15.2432 74.8301 16.7256C74.5723 18.1436 74.25 19.5938 73.8633 21.0762C73.4766 22.4941 73.0576 23.9443 72.6064 25.4268C72.1553 26.8447 71.7686 28.2627 71.4463 29.6807L65.2588 41.4756L61.7783 49.0166L62.2617 50.0801C63.6152 48.4688 65.001 47.2441 66.4189 46.4062C67.8369 45.5039 69.6094 44.9883 71.7363 44.8594C72.7031 44.7949 73.5088 45.085 74.1533 45.7295C74.8623 46.374 75.4424 47.2119 75.8936 48.2432C76.3447 49.21 76.667 50.209 76.8604 51.2402C77.1182 52.2715 77.2793 53.1094 77.3438 53.7539C77.3438 54.1406 77.3115 54.7529 77.2471 55.5908C77.1826 56.4287 77.1182 57.3955 77.0537 58.4912C76.9893 59.5869 76.9248 60.7471 76.8604 61.9717C76.8604 63.1318 76.9248 64.2275 77.0537 65.2588C77.1826 66.29 77.4404 67.1924 77.8271 67.9658C78.2783 68.6748 78.8584 69.0938 79.5674 69.2227C82.0811 68.9004 84.3047 68.4814 86.2383 67.9658C88.2363 67.3857 89.9766 66.6123 91.459 65.6455C92.9414 64.6143 94.166 63.3252 95.1328 61.7783C96.1641 60.2314 96.9375 58.3301 97.4531 56.0742C97.9043 55.4297 98.5488 55.1074 99.3867 55.1074C99.7017 55.1074 99.979 55.1454 100.219 55.2207L100.45 53.7539C100.515 53.4316 100.708 52.8516 101.03 52.0137C101.353 51.1758 101.675 50.2734 101.997 49.3066C102.384 48.3398 102.738 47.4375 103.061 46.5996C103.383 45.7617 103.608 45.1816 103.737 44.8594C104.124 43.8281 104.479 43.1514 104.801 42.8291C105.188 42.5068 105.864 42.3457 106.831 42.3457C107.862 42.3457 108.539 42.7002 108.861 43.4092C109.184 44.1182 109.345 44.9561 109.345 45.9229C109.345 47.5986 109.087 49.1455 108.571 50.5635C108.12 51.917 107.604 53.3027 107.024 54.7207C106.444 56.0742 105.896 57.5566 105.381 59.168C104.93 60.7148 104.704 62.5195 104.704 64.582V65.7422C104.704 66.1934 104.736 66.6768 104.801 67.1924C104.865 67.6436 104.994 68.0625 105.188 68.4492C105.381 68.7715 105.639 68.9326 105.961 68.9326C107.637 68.9326 109.312 68.6104 110.988 67.9658C112.729 67.2568 114.404 66.4512 116.016 65.5488C117.691 64.582 119.271 63.5508 120.753 62.4551C122.3 61.2949 123.686 60.2959 124.91 59.458C125.361 59.1357 125.684 58.8135 125.877 58.4912C126.135 58.1689 126.36 57.8789 126.554 57.6211C126.747 57.2988 126.973 57.041 127.23 56.8477C127.553 56.5898 128.036 56.4609 128.681 56.4609C129.519 56.4609 130.195 56.6543 130.711 57.041C131.291 57.3633 131.581 57.9756 131.581 58.8779C131.581 59.2646 131.549 59.6191 131.484 59.9414C131.484 60.2637 131.323 60.5537 131.001 60.8115C130.937 61.0049 130.679 61.2627 130.228 61.585C129.841 61.9072 129.422 62.2617 128.971 62.6484C128.52 62.9707 128.101 63.293 127.714 63.6152C127.327 63.873 127.037 64.0342 126.844 64.0986C126.779 64.0986 126.586 64.1953 126.264 64.3887C126.006 64.5176 125.845 64.582 125.78 64.582L125.49 64.8721C125.426 64.9365 125.394 65.001 125.394 65.0654C124.04 66.0967 122.558 67.1602 120.946 68.2559C119.399 69.2871 117.756 70.2539 116.016 71.1562C114.275 71.9941 112.471 72.7031 110.602 73.2832C108.797 73.8633 106.992 74.1533 105.188 74.1533C103.641 74.1533 102.448 73.7666 101.61 72.9932C100.837 72.1553 100.257 71.124 99.8701 69.8994C99.4834 68.6748 99.2578 67.3857 99.1934 66.0322C99.183 65.8137 99.1747 65.5985 99.166 65.3867C97.5586 67.3062 95.5057 68.9075 93.0059 70.1895C90.4922 71.4785 87.7852 72.4775 84.8848 73.1865C81.9844 73.8311 79.3096 74.1533 76.8604 74.1533C75.3135 74.1533 74.25 73.6377 73.6699 72.6064C73.0898 71.5107 72.7354 70.2217 72.6064 68.7393C72.542 67.1924 72.542 65.6455 72.6064 64.0986C72.6709 62.5518 72.6709 61.2949 72.6064 60.3281C72.6064 60.0059 72.5742 59.4902 72.5098 58.7812C72.4453 58.0078 72.3486 57.2021 72.2197 56.3643C72.1553 55.5264 72.0586 54.7207 71.9297 53.9473C71.8008 53.1738 71.7363 52.626 71.7363 52.3037C71.6074 52.0459 71.3818 51.6914 71.0596 51.2402C70.8018 50.7246 70.4795 50.4668 70.0928 50.4668C68.8682 50.4668 67.6113 51.0146 66.3223 52.1104C65.0977 53.1416 63.9053 54.3984 62.7451 55.8809C61.6494 57.2988 60.6826 58.749 59.8447 60.2314C59.0713 61.7139 58.5879 62.874 58.3945 63.7119C58.1367 64.5498 58.0078 65.5488 58.0078 66.709C58.0078 67.8691 57.9111 68.9648 57.7178 69.9961C57.5889 71.0273 57.2344 71.8975 56.6543 72.6064C56.1387 73.3154 55.2041 73.6699 53.8506 73.6699C53.0127 73.6699 52.4326 73.5088 52.1104 73.1865C51.8525 72.7998 51.7236 72.1875 51.7236 71.3496C52.1748 68.2559 52.5615 65.71 52.8838 63.7119C53.2705 61.7139 53.5928 59.9736 53.8506 58.4912C54.1729 56.9443 54.4629 55.4619 54.7207 54.0439C55.043 52.5615 55.3975 50.7891 55.7842 48.7266C56.1709 46.6641 56.5898 44.1504 57.041 41.1855C57.4922 38.1562 58.04 34.3213 58.6846 29.6807C58.6846 28.7139 58.749 27.3604 58.8779 25.6201C59.0068 23.8154 59.2324 21.9141 59.5547 19.916C59.9414 17.8535 60.4248 15.791 61.0049 13.7285C61.585 11.6016 62.2939 9.7002 63.1318 8.02441C64.0342 6.34863 65.0654 4.99512 66.2256 3.96387C67.3857 2.86816 68.7393 2.32031 70.2861 2.32031ZM69.9961 8.41113C68.4492 9.63574 67.2568 11.0859 66.4189 12.7617C65.5811 14.4375 64.9688 16.1777 64.582 17.9824C64.1953 19.7871 63.9697 21.6562 63.9053 23.5898C63.8408 25.5234 63.8086 27.3604 63.8086 29.1006V31.3242C63.873 31.7109 63.9053 32.0654 63.9053 32.3877V32.9678L64.3887 33.4512C65.0332 33.0645 65.6133 32.3877 66.1289 31.4209C66.709 30.4541 67.2246 29.2939 67.6758 27.9404C68.127 26.5869 68.5137 25.1689 68.8359 23.6865C69.2227 22.1396 69.5449 20.625 69.8027 19.1426C70.0605 17.6602 70.2539 16.3066 70.3828 15.082C70.5762 13.8574 70.6729 12.8584 70.6729 12.085C70.6729 11.8271 70.6406 11.3438 70.5762 10.6348C70.5762 9.92578 70.5439 9.50684 70.4795 9.37793L69.9961 8.41113Z"/>
    
    <path stroke="url(#paint1_linear_1_4)" fill-rule="evenodd" clip-rule="evenodd" d="M235.802 17.9824C237.155 17.9824 237.993 18.498 238.315 19.5293C238.638 20.4961 238.799 21.4951 238.799 22.5264C238.799 26.3936 238.219 30.0352 237.059 33.4512C235.898 36.8027 234.416 40.1221 232.611 43.4092C233.771 42.7002 234.932 42.1201 236.092 41.6689C237.316 41.2178 238.605 40.9922 239.959 40.9922C241.635 40.9922 242.988 41.3145 244.02 41.959C245.051 42.5391 246.146 43.5059 247.307 44.8594C247.371 44.9883 247.403 45.4072 247.403 46.1162V47.4697C247.403 49.4033 246.952 51.2402 246.05 52.9805C245.147 54.7207 243.987 56.2998 242.569 57.7178C241.151 59.1357 239.572 60.4248 237.832 61.585C236.092 62.6807 234.352 63.5186 232.611 64.0986V64.582C232.611 65.2266 232.805 65.8066 233.191 66.3223C233.578 66.7734 234.029 67.1924 234.545 67.5791C235.061 67.9014 235.608 68.1592 236.188 68.3525C236.769 68.4814 237.316 68.5459 237.832 68.5459C239.25 68.5459 240.732 68.4814 242.279 68.3525C243.826 68.2236 245.341 67.998 246.823 67.6758C248.37 67.2891 249.82 66.8379 251.174 66.3223C252.527 65.7422 253.752 65.001 254.848 64.0986C255.363 63.7119 255.911 63.0996 256.491 62.2617C256.681 61.987 256.867 61.7112 257.05 61.4365C256.238 61.4917 255.698 61.4141 255.428 61.1982C255.105 60.876 255.009 60.457 255.138 59.9414C255.267 59.4258 255.621 58.8457 256.201 58.2012C256.781 57.5566 257.458 57.0088 258.231 56.5576C258.94 56.1064 259.714 55.7842 260.552 55.5908C261.454 55.3975 262.26 55.4297 262.969 55.6875C262.646 54.5273 262.679 53.5283 263.065 52.6904C263.452 51.8525 264.226 51.4336 265.386 51.4336C265.966 51.4336 266.481 51.498 266.933 51.627C267.448 51.6914 267.835 51.9492 268.093 52.4004C269.06 51.8203 270.349 50.8535 271.96 49.5C273.571 48.082 275.215 46.6641 276.891 45.2461C278.631 43.7637 280.21 42.4746 281.628 41.3789C283.046 40.2188 284.013 39.6387 284.528 39.6387C284.722 39.6387 284.979 39.6709 285.302 39.7354C285.624 39.7354 285.946 39.7998 286.269 39.9287C286.655 40.0576 286.945 40.2188 287.139 40.4121C287.396 40.541 287.525 40.7666 287.525 41.0889V45.2461C287.074 47.0508 286.623 48.7588 286.172 50.3701C285.785 51.917 285.431 53.4639 285.108 55.0107C284.851 56.4932 284.657 58.0078 284.528 59.5547C284.399 61.1016 284.335 62.7451 284.335 64.4854C285.366 64.4854 286.591 64.2598 288.009 63.8086C289.491 63.3574 290.974 62.8096 292.456 62.165C293.938 61.5205 295.324 60.876 296.613 60.2314C297.902 59.5225 298.934 58.9424 299.707 58.4912C299.836 58.4268 300.126 58.2012 300.577 57.8145C301.028 57.4277 301.512 57.041 302.027 56.6543C302.543 56.2031 303.026 55.8164 303.478 55.4941C303.993 55.1074 304.315 54.8496 304.444 54.7207C304.573 54.5918 304.896 54.4307 305.411 54.2373C305.927 53.9795 306.217 53.8184 306.281 53.7539C306.539 53.6895 306.765 53.7861 306.958 54.0439C307.216 54.2373 307.441 54.4951 307.635 54.8174C307.828 55.0752 307.957 55.3652 308.021 55.6875C308.15 55.9453 308.215 56.1064 308.215 56.1709C308.215 56.8154 307.957 57.46 307.441 58.1045C306.926 58.749 306.313 59.3613 305.604 59.9414C304.896 60.457 304.154 60.9727 303.381 61.4883C302.672 61.9395 302.124 62.3584 301.737 62.7451C301.222 63.0029 300.319 63.4219 299.03 64.002C297.806 64.582 296.484 65.1943 295.066 65.8389C293.648 66.4834 292.295 67.0957 291.006 67.6758C289.781 68.2559 288.911 68.6748 288.396 68.9326C288.267 68.9971 287.977 69.0938 287.525 69.2227C287.074 69.2871 286.591 69.416 286.075 69.6094C285.56 69.8027 285.044 69.9639 284.528 70.0928C284.077 70.1572 283.787 70.2217 283.658 70.2861C283.078 70.4795 282.627 70.8018 282.305 71.2529C282.047 71.7041 281.757 72.1553 281.435 72.6064C281.177 73.0576 280.822 73.4443 280.371 73.7666C279.984 74.0889 279.34 74.1855 278.438 74.0566C278.373 73.9922 278.083 73.8633 277.567 73.6699C277.116 73.4121 276.826 73.2188 276.697 73.0898C275.15 71.9941 273.829 70.9629 272.733 69.9961C271.638 69.0293 270.639 68.0947 269.736 67.1924C268.834 66.2256 267.964 65.1943 267.126 64.0986C266.353 63.0029 265.45 61.7783 264.419 60.4248C263.903 60.6826 263.355 60.8437 262.775 60.9082H262.734C261.564 63.2739 260.224 65.272 258.715 66.9023C257.168 68.5781 255.396 69.9316 253.397 70.9629C251.399 71.9297 249.144 72.6387 246.63 73.0898C244.181 73.4766 241.441 73.6699 238.412 73.6699C235.834 73.6699 233.643 73.2188 231.838 72.3164C230.098 71.3496 228.647 69.7383 227.487 67.4824C227.423 67.2246 227.294 66.9023 227.101 66.5156C226.972 66.0645 226.811 65.6455 226.617 65.2588C226.488 64.8076 226.295 64.3887 226.037 64.002C225.779 63.6152 225.457 63.3574 225.07 63.2285L220.43 73.0898C220.236 73.541 219.85 73.8311 219.27 73.96C218.754 74.0889 218.271 74.1533 217.819 74.1533C217.433 74.1533 217.046 74.1211 216.659 74.0566C216.337 74.0566 216.015 73.9277 215.692 73.6699C215.628 73.4766 215.596 73.0576 215.596 72.4131V71.1562C215.596 69.0938 215.95 67.0957 216.659 65.1621C216.891 64.563 217.139 63.9734 217.4 63.3916C217.006 63.6005 216.534 63.8374 215.982 64.0986C214.822 64.6787 213.565 65.3232 212.212 66.0322C210.858 66.7412 209.569 67.418 208.345 68.0625C207.185 68.707 206.347 69.126 205.831 69.3193C204.929 69.835 203.93 70.3184 202.834 70.7695C201.738 71.1562 200.61 71.543 199.45 71.9297C198.29 72.3164 197.13 72.6387 195.97 72.8965C194.874 73.0898 193.875 73.1865 192.973 73.1865C191.555 73.1865 190.395 72.9609 189.492 72.5098C188.59 71.9941 187.913 71.3496 187.462 70.5762C187.011 69.7383 186.688 68.7715 186.495 67.6758C186.366 66.5156 186.366 65.3232 186.495 64.0986C185.206 65.1299 183.82 66.2256 182.338 67.3857C180.855 68.5459 179.309 69.6094 177.697 70.5762C176.086 71.543 174.442 72.3809 172.767 73.0898C171.091 73.7988 169.383 74.1533 167.643 74.1533C166.676 74.1533 165.806 73.9277 165.032 73.4766C164.259 72.9609 163.711 72.1875 163.389 71.1562V68.1592C163.133 67.2584 162.931 66.3606 162.777 65.4668C162.664 65.5576 162.546 65.6505 162.422 65.7422C160.939 66.8379 159.231 67.8691 157.298 68.8359C155.364 69.7383 153.495 70.5117 151.69 71.1562C149.95 71.8008 148.79 72.123 148.21 72.123C146.276 72.5098 144.472 72.542 142.796 72.2197C141.12 71.833 139.67 71.2207 138.445 70.3828C137.221 69.4805 136.189 68.417 135.352 67.1924C134.578 65.9033 134.095 64.582 133.901 63.2285L134.965 56.5576L135.352 56.1709C135.48 55.5908 135.738 54.5918 136.125 53.1738C136.512 51.7559 136.931 50.2412 137.382 48.6299C137.833 46.9541 138.252 45.4072 138.639 43.9893C139.09 42.5713 139.412 41.6045 139.605 41.0889C139.67 40.8311 139.863 40.2832 140.186 39.4453C140.572 38.543 140.991 37.5762 141.442 36.5449L142.796 33.4512C143.247 32.4199 143.569 31.6465 143.763 31.1309C144.214 30.2285 144.891 29.0361 145.793 27.5537C146.76 26.0713 147.823 24.6855 148.983 23.3965C150.208 22.043 151.465 20.8828 152.754 19.916C154.043 18.8848 155.235 18.3691 156.331 18.3691C156.911 18.3691 157.362 18.5303 157.685 18.8525C158.071 19.1748 158.329 19.5615 158.458 20.0127C158.651 20.3994 158.78 20.8506 158.845 21.3662C158.909 21.8818 158.941 22.333 158.941 22.7197C158.941 26.0713 158.458 29.4229 157.491 32.7744C156.589 36.0615 155.332 39.2197 153.721 42.249C152.109 45.2783 150.176 48.1465 147.92 50.8535C145.729 53.4961 143.408 55.8809 140.959 58.0078C140.895 58.2012 140.798 58.5879 140.669 59.168C140.604 59.748 140.54 60.167 140.476 60.4248V60.6182C140.476 61.9072 140.798 62.9385 141.442 63.7119C142.151 64.4854 142.989 65.0654 143.956 65.4521C144.923 65.7744 145.986 66 147.146 66.1289C148.371 66.2578 149.531 66.3223 150.627 66.3223C151.207 66.3223 152.045 66.0322 153.141 65.4521C154.301 64.8721 155.461 64.2275 156.621 63.5186C157.846 62.7451 159.038 62.0684 160.198 61.4883C161.134 61.0202 161.882 60.7437 162.44 60.6533C162.484 59.3449 162.638 58.044 162.905 56.751C163.743 53.0127 165.193 49.6611 167.256 46.6963C169.383 43.667 172.058 41.1533 175.28 39.1553C178.567 37.0928 182.145 35.8359 186.012 35.3848H187.752C189.17 35.3848 190.33 35.707 191.232 36.3516C192.199 36.9316 192.94 37.7051 193.456 38.6719C194.036 39.6387 194.423 40.7344 194.616 41.959C194.874 43.1836 195.003 44.4082 195.003 45.6328C195.003 47.3086 194.81 48.9521 194.423 50.5635C194.101 52.1104 193.714 53.6895 193.263 55.3008L192.103 60.1348C191.78 61.6816 191.619 63.3252 191.619 65.0654V65.6455C191.684 65.7744 191.748 66.1611 191.812 66.8057C191.941 67.3857 192.038 67.7402 192.103 67.8691C192.231 67.8691 192.554 67.9014 193.069 67.9658H195.873C196.518 67.9014 197.162 67.7402 197.807 67.4824L216.176 58.9746H216.466C216.659 58.9102 216.788 58.8779 216.853 58.8779C217.497 58.8779 218.013 59.0713 218.399 59.458C218.672 59.6915 218.861 59.9723 218.969 60.2998C219.13 60.0171 219.294 59.7361 219.463 59.458L224.684 45.8262L229.808 26.877L234.062 18.4658C234.19 18.1436 234.416 17.9824 234.738 17.9824H235.802ZM183.015 42.9258C182.628 42.9258 182.37 42.958 182.241 43.0225C181.854 43.3447 181.21 43.957 180.308 44.8594C179.405 45.6973 178.438 46.6318 177.407 47.6631C176.44 48.6943 175.506 49.6611 174.604 50.5635C173.766 51.4658 173.186 52.0781 172.863 52.4004C172.799 52.4004 172.67 52.5293 172.477 52.7871C172.283 52.9805 172.058 53.2383 171.8 53.5605L171.22 54.5273C171.091 54.7852 170.994 55.0107 170.93 55.2041L168.609 66.5156V69.126C170.092 69.126 171.735 68.707 173.540 67.8691C175.345 66.9668 177.117 65.8711 178.857 64.582C180.598 63.293 182.177 61.9395 183.595 60.5215C185.013 59.0391 186.108 57.7178 186.882 56.5576C186.946 54.624 187.204 52.7871 187.655 51.0469C188.171 49.2422 188.429 47.4053 188.429 45.5361C188.429 45.4072 188.396 45.2139 188.332 44.9561V44.376C187.494 43.667 186.785 43.248 186.205 43.1191C185.625 42.9902 184.852 42.9258 183.885 42.9258H183.015ZM280.371 49.1133C279.34 49.8223 278.373 50.5313 277.471 51.2402L274.957 53.1738C274.119 53.7539 273.442 54.2695 272.927 54.7207L272.637 55.0107C272.508 55.1396 272.411 55.2041 272.347 55.2041C272.282 55.333 271.992 55.5586 271.477 55.8809C270.961 56.2031 270.639 56.4287 270.51 56.5576C270.961 57.5244 271.38 58.459 271.767 59.3613C272.218 60.2637 272.733 61.1338 273.313 61.9717C273.894 62.7451 274.538 63.4219 275.247 64.002C276.021 64.582 276.955 64.9365 278.051 65.0654C278.18 64.0986 278.341 62.9385 278.534 61.585C278.728 60.2314 278.953 58.8135 279.211 57.3311C279.469 55.8486 279.759 54.3984 280.081 52.9805C280.468 51.498 280.887 50.209 281.338 49.1133H280.371ZM239.766 46.6963C238.992 46.6963 238.251 46.7607 237.542 46.8896C236.897 46.9541 236.221 47.2119 235.512 47.6631C235.318 47.8564 234.932 48.2109 234.352 48.7266C233.771 49.1777 233.191 49.6934 232.611 50.2734L230.871 51.8203C230.291 52.3359 229.937 52.6582 229.808 52.7871C229.679 52.9805 229.421 53.3994 229.034 54.0439C228.647 54.6885 228.454 55.1396 228.454 55.3975C228.454 55.5908 228.551 55.9131 228.744 56.3643C228.938 56.8154 229.163 57.2666 229.421 57.7178C229.679 58.1689 229.937 58.5879 230.194 58.9746C230.517 59.2969 230.807 59.458 231.064 59.458C231.322 59.458 231.645 59.3936 232.031 59.2646C232.418 59.0713 232.805 58.9102 233.191 58.7812C233.643 58.5879 234.029 58.3945 234.352 58.2012C234.674 58.0078 234.932 57.8145 235.125 57.6211C235.318 57.3633 235.673 56.9443 236.188 56.3643C236.704 55.7842 237.252 55.1719 237.832 54.5273C238.477 53.8828 239.057 53.2705 239.572 52.6904C240.152 52.1104 240.507 51.6914 240.636 51.4336C240.7 51.3047 240.797 51.0791 240.926 50.7568C241.119 50.4346 241.28 50.1123 241.409 49.79C241.603 49.4678 241.764 49.1455 241.893 48.8232C242.021 48.501 242.118 48.2754 242.183 48.1465V47.6631C242.183 47.4697 242.15 47.3086 242.086 47.1797C242.086 46.9863 241.925 46.8252 241.603 46.6963H239.766ZM153.237 27.7471C152.657 27.7471 151.98 28.2305 151.207 29.1973C150.498 30.0996 149.789 31.1631 149.08 32.3877C148.371 33.6123 147.727 34.8047 147.146 35.9648C146.631 37.0605 146.341 37.8018 146.276 38.1885C146.083 38.6396 145.793 39.3809 145.406 40.4121C145.02 41.4434 144.633 42.5391 144.246 43.6992C143.859 44.7949 143.473 45.8584 143.086 46.8896C142.764 47.9209 142.538 48.6621 142.409 49.1133H142.893C142.893 49.1133 143.086 48.8877 143.473 48.4365C143.859 47.9209 144.278 47.3408 144.729 46.6963L146.276 44.7627C146.856 44.0537 147.275 43.4736 147.533 43.0225C147.791 42.6357 148.146 42.0557 148.597 41.2822C149.048 40.4443 149.338 39.9287 149.467 39.7354C149.725 39.0264 150.079 38.0918 150.53 36.9316C150.981 35.707 151.4 34.5146 151.787 33.3545C152.174 32.1943 152.496 31.1953 152.754 30.3574C153.076 29.4551 153.237 28.9395 153.237 28.8105V27.7471ZM281.338 47.6631C281.145 47.6631 281.048 47.8242 281.048 48.1465C281.048 48.4043 281.145 48.5332 281.338 48.5332C281.596 48.5332 281.725 48.4043 281.725 48.1465C281.725 47.8242 281.596 47.6631 281.338 47.6631Z"/>

    <path stroke="url(#paint2_linear_1_4)" fill-rule="evenodd" clip-rule="evenodd" d="M324.554 2.32031C325.649 2.32031 326.52 2.70703 327.164 3.48047C327.873 4.18945 328.389 5.05957 328.711 6.09082C329.098 7.12207 329.323 8.21777 329.388 9.37793C329.452 10.4736 329.484 11.376 329.484 12.085C329.484 13.6963 329.355 15.2432 329.098 16.7256C328.84 18.1436 328.518 19.5938 328.131 21.0762C327.744 22.4941 327.325 23.9443 326.874 25.4268C326.423 26.8447 326.036 28.2627 325.714 29.6807L319.526 41.4756L316.046 49.0166L316.529 50.0801C317.883 48.4688 319.269 47.2441 320.687 46.4062C322.104 45.5039 323.877 44.9883 326.004 44.8594C326.971 44.7949 327.776 45.085 328.421 45.7295C329.13 46.374 329.71 47.2119 330.161 48.2432C330.612 49.21 330.935 50.209 331.128 51.2402C331.386 52.2715 331.547 53.1094 331.611 53.7539C331.611 54.1406 331.579 54.7529 331.515 55.5908C331.45 56.4287 331.386 57.3955 331.321 58.4912C331.257 59.5869 331.192 60.7471 331.128 61.9717C331.128 63.1318 331.192 64.2275 331.321 65.2588C331.45 66.29 331.708 67.1924 332.095 67.9658C332.546 68.6748 333.126 69.0938 333.835 69.2227C336.349 68.9004 338.572 68.4814 340.506 67.9658C342.504 67.3857 344.244 66.6123 345.727 65.6455C347.209 64.6143 348.434 63.3252 349.4 61.7783C350.432 60.2314 351.205 58.3301 351.721 56.0742C352.172 55.4297 352.816 55.1074 353.654 55.1074C354.023 55.1074 354.341 55.1594 354.606 55.2627C355.474 52.1176 356.8 49.2621 358.585 46.6963C360.712 43.667 363.387 41.1533 366.609 39.1553C369.896 37.0928 373.474 35.8359 377.341 35.3848H379.081C380.499 35.3848 381.659 35.707 382.562 36.3516C383.528 36.9316 384.27 37.7051 384.785 38.6719C385.365 39.6387 385.752 40.7344 385.945 41.959C386.203 43.1836 386.332 44.4082 386.332 45.6328C386.332 47.3086 386.139 48.9521 385.752 50.5635C385.43 52.1104 385.043 53.6895 384.592 55.3008L383.432 60.1348C383.109 61.6816 382.948 63.3252 382.948 65.0654V65.6455C383.013 65.7744 383.077 66.1611 383.142 66.8057C383.271 67.3857 383.367 67.7402 383.432 67.8691C383.561 67.8691 383.883 67.9014 384.398 67.9658H387.202C387.847 67.9014 388.491 67.7402 389.136 67.4824L407.505 58.9746H407.795C407.988 58.9102 408.117 58.8779 408.182 58.8779C408.257 58.8779 408.33 58.8805 408.401 58.8857L409.438 52.7871V50.0801L411.372 37.2217C411.565 36.9639 411.92 36.835 412.436 36.835C412.951 36.7705 413.306 36.7383 413.499 36.7383C414.015 36.7383 414.595 36.9316 415.239 37.3184C415.948 37.6406 416.303 38.0918 416.303 38.6719V45.2461C416.561 45.0527 417.012 44.666 417.656 44.0859C418.301 43.5059 418.978 42.8936 419.687 42.249C420.46 41.6045 421.169 40.9922 421.813 40.4121C422.458 39.832 422.877 39.4131 423.07 39.1553C423.779 38.5107 424.617 37.9629 425.584 37.5117C426.615 37.0605 427.582 36.835 428.484 36.835C430.354 36.835 431.804 37.415 432.835 38.5752C433.931 39.7354 434.479 41.2178 434.479 43.0225C434.479 43.1514 434.446 43.248 434.382 43.3125V43.8926L430.708 60.4248V68.2559C432.706 68.2559 434.769 67.8691 436.896 67.0957C439.087 66.2578 441.182 65.2266 443.18 64.002C445.178 62.7773 447.047 61.3916 448.787 59.8447C450.527 58.2334 452.042 56.6865 453.331 55.2041H453.718C454.169 55.2041 454.523 55.3652 454.781 55.6875C455.104 55.9453 455.265 56.2998 455.265 56.751C455.265 58.1689 454.781 59.5869 453.814 61.0049C452.912 62.3584 451.72 63.6475 450.237 64.8721C448.819 66.0967 447.144 67.2568 445.21 68.3525C443.341 69.4482 441.472 70.3828 439.603 71.1562C437.798 71.9297 436.025 72.542 434.285 72.9932C432.545 73.4443 431.062 73.6699 429.838 73.6699C428.613 73.6699 427.646 73.4443 426.938 72.9932C426.229 72.542 425.681 71.9619 425.294 71.2529C424.972 70.4795 424.746 69.6416 424.617 68.7393C424.553 67.8369 424.521 66.8701 424.521 65.8389V64.582L428.291 45.8262V42.6357C426.744 42.6357 425.197 43.3125 423.65 44.666C422.168 46.0195 420.814 47.6631 419.59 49.5967C418.43 51.5303 417.398 53.4961 416.496 55.4941C415.658 57.4922 415.046 59.1357 414.659 60.4248C414.53 60.876 414.337 61.6816 414.079 62.8418C413.821 64.002 413.563 65.2266 413.306 66.5156C413.112 67.8047 412.919 69.0293 412.726 70.1895C412.532 71.3496 412.403 72.1875 412.339 72.7031C412.403 73.0898 412.274 73.3799 411.952 73.5732C411.694 73.7666 411.372 73.9277 410.985 74.0566C410.599 74.1211 410.18 74.1533 409.729 74.1533H408.762C408.182 74.1533 407.602 74.0566 407.021 73.8633C406.441 73.6699 406.151 73.1865 406.151 72.4131V72.123L407.533 63.9902C407.46 64.0251 407.387 64.0628 407.312 64.0986C406.151 64.6787 404.895 65.3232 403.541 66.0322C402.188 66.7412 400.898 67.418 399.674 68.0625C398.514 68.707 397.676 69.126 397.16 69.3193C396.258 69.835 395.259 70.3184 394.163 70.7695C393.067 71.1562 391.939 71.543 390.779 71.9297C389.619 72.3164 388.459 72.6387 387.299 72.8965C386.203 73.0898 385.204 73.1865 384.302 73.1865C382.884 73.1865 381.724 72.9609 380.821 72.5098C379.919 71.9941 379.242 71.3496 378.791 70.5762C378.34 69.7383 378.018 68.7715 377.824 67.6758C377.695 66.5156 377.695 65.3232 377.824 64.0986C376.535 65.1299 375.149 66.2256 373.667 67.3857C372.185 68.5459 370.638 69.6094 369.026 70.5762C367.415 71.543 365.771 72.3809 364.096 73.0898C362.42 73.7988 360.712 74.1533 358.972 74.1533C358.005 74.1533 357.135 73.9277 356.361 73.4766C355.588 72.9609 355.04 72.1875 354.718 71.1562V68.1592C354.388 66.9945 354.143 65.8356 353.982 64.6826C353.818 64.9099 353.646 65.1352 353.461 65.3555C351.85 67.2891 349.787 68.9004 347.273 70.1895C344.76 71.4785 342.053 72.4775 339.152 73.1865C336.252 73.8311 333.577 74.1533 331.128 74.1533C329.581 74.1533 328.518 73.6377 327.938 72.6064C327.357 71.5107 327.003 70.2217 326.874 68.7393C326.81 67.1924 326.81 65.6455 326.874 64.0986C326.938 62.5518 326.938 61.2949 326.874 60.3281C326.874 60.0059 326.842 59.4902 326.777 58.7812C326.713 58.0078 326.616 57.2021 326.487 56.3643C326.423 55.5264 326.326 54.7207 326.197 53.9473C326.068 53.1738 326.004 52.626 326.004 52.3037C325.875 52.0459 325.649 51.6914 325.327 51.2402C325.069 50.7246 324.747 50.4668 324.36 50.4668C323.136 50.4668 321.879 51.0146 320.59 52.1104C319.365 53.1416 318.173 54.3984 317.013 55.8809C315.917 57.2988 314.95 58.749 314.112 60.2314C313.339 61.7139 312.855 62.874 312.662 63.7119C312.404 64.5498 312.275 65.5488 312.275 66.709C312.275 67.8691 312.179 68.9648 311.985 69.9961C311.856 71.0273 311.502 71.8975 310.922 72.6064C310.406 73.3154 309.472 73.6699 308.118 73.6699C307.28 73.6699 306.7 73.5088 306.378 73.1865C306.12 72.7998 305.991 72.1875 305.991 71.3496C306.442 68.2559 306.829 65.71 307.151 63.7119C307.538 61.7139 307.86 59.9736 308.118 58.4912C308.44 56.9443 308.73 55.4619 308.988 54.0439C309.311 52.5615 309.665 50.7891 310.052 48.7266C310.438 46.6641 310.857 44.1504 311.309 41.1855C311.76 38.1562 312.308 34.3213 312.952 29.6807C312.952 28.7139 313.017 27.3604 313.146 25.6201C313.274 23.8154 313.5 21.9141 313.822 19.916C314.209 17.8535 314.692 15.791 315.272 13.7285C315.853 11.6016 316.562 9.7002 317.399 8.02441C318.302 6.34863 319.333 4.99512 320.493 3.96387C321.653 2.86816 323.007 2.32031 324.554 2.32031ZM374.344 42.9258C373.957 42.9258 373.699 42.958 373.57 43.0225C373.184 43.3447 372.539 43.957 371.637 44.8594C370.734 45.6973 369.768 46.6318 368.736 47.6631C367.77 48.6943 366.835 49.6611 365.933 50.5635C365.095 51.4658 364.515 52.0781 364.192 52.4004C364.128 52.4004 363.999 52.5293 363.806 52.7871C363.612 52.9805 363.387 53.2383 363.129 53.5605L362.549 54.5273C362.42 54.7852 362.323 55.0107 362.259 55.2041L359.938 66.5156V69.126C361.421 69.126 363.064 68.707 364.869 67.8691C366.674 66.9668 368.446 65.8711 370.187 64.582C371.927 63.293 373.506 61.9395 374.924 60.5215C376.342 59.0391 377.438 57.7178 378.211 56.5576C378.275 54.624 378.533 52.7871 378.984 51.0469C379.5 49.2422 379.758 47.4053 379.758 45.5361C379.758 45.4072 379.726 45.2139 379.661 44.9561V44.376C378.823 43.667 378.114 43.248 377.534 43.1191C376.954 42.9902 376.181 42.9258 375.214 42.9258H374.344ZM324.264 8.41113C322.717 9.63574 321.524 11.0859 320.687 12.7617C319.849 14.4375 319.236 16.1777 318.85 17.9824C318.463 19.7871 318.237 21.6562 318.173 23.5898C318.108 25.5234 318.076 27.3604 318.076 29.1006V31.3242C318.141 31.7109 318.173 32.0654 318.173 32.3877V32.9678L318.656 33.4512C319.301 33.0645 319.881 32.3877 320.396 31.4209C320.977 30.4541 321.492 29.2939 321.943 27.9404C322.395 26.5869 322.781 25.1689 323.104 23.6865C323.49 22.1396 323.812 20.625 324.07 19.1426C324.328 17.6602 324.521 16.3066 324.65 15.082C324.844 13.8574 324.94 12.8584 324.94 12.085C324.94 11.8271 324.908 11.3438 324.844 10.6348C324.844 9.92578 324.812 9.50684 324.747 9.37793L324.264 8.41113Z"/>

    <path stroke="url(#paint3_linear_1_4)" d="M5.31738 0C13.9541 0 22.5908 0.193359 31.2275 0.580078C39.9287 0.902344 48.5977 1.19238 57.2344 1.4502C57.6211 1.77246 57.9434 2.15918 58.2012 2.61035C58.5234 2.99707 58.6846 3.41602 58.6846 3.86719C58.6846 4.31836 58.3945 4.83398 57.8145 5.41406C57.2988 5.92969 56.8154 6.1875 56.3643 6.1875H31.5176C31.5176 9.60352 31.292 12.8906 30.8408 16.0488C30.3896 19.1426 30.0352 22.4297 29.7773 25.9102C29.7129 26.4258 29.6484 27.5215 29.584 29.1973C29.5195 30.8086 29.4229 32.71 29.2939 34.9014C29.165 37.0283 29.0361 39.3164 28.9072 41.7656C28.7783 44.2148 28.6494 46.5352 28.5205 48.7266C28.3916 50.8535 28.2627 52.7549 28.1338 54.4307C28.0049 56.042 27.9404 57.1055 27.9404 57.6211C27.876 58.1367 27.876 58.9102 27.9404 59.9414C28.0693 60.9727 28.166 62.0684 28.2305 63.2285C28.2949 64.3887 28.2627 65.6133 28.1338 66.9023C28.0693 68.127 27.876 69.2871 27.5537 70.3828C27.2959 71.4141 26.8447 72.252 26.2002 72.8965C25.5557 73.4766 24.7178 73.7666 23.6865 73.7666H22.9131C22.5908 73.7021 22.3975 73.6699 22.333 73.6699L21.7529 72.7031V63.2285L26.4902 6.6709L27.0703 5.80078L2.51367 3.86719C1.93359 3.80273 1.35352 3.60938 0.773438 3.28711C0.257812 2.90039 0 2.38477 0 1.74023C0 1.28906 0.0644531 0.966797 0.193359 0.773438C0.386719 0.515625 0.708984 0.257812 1.16016 0H5.31738Z"/>
    
    <path stroke="url(#paint4_linear_1_4)" d="M108.185 25.4268C108.765 25.4268 109.345 25.5557 109.925 25.8135C110.505 26.0068 110.795 26.5225 110.795 27.3604C110.795 28.1982 110.376 28.9717 109.538 29.6807C108.765 30.3896 107.991 30.7441 107.218 30.7441C106.444 30.7441 105.896 30.5186 105.574 30.0674C105.252 29.5518 105.091 28.9717 105.091 28.3271C105.091 27.167 105.316 26.3936 105.768 26.0068C106.219 25.6201 107.024 25.4268 108.185 25.4268Z"/>
    
    <defs>
        <linearGradient id="paint0_linear_1_4" x1="65.7432" y1="120.057" x2="392.743" y2="120.057" gradientUnits="userSpaceOnUse">
            <stop stop-color="#586FFF"/>
            <stop offset="1" stop-color="#FFC31F"/>
        </linearGradient>
        <linearGradient id="paint1_linear_1_4" x1="65.7432" y1="120.057" x2="392.743" y2="120.057" gradientUnits="userSpaceOnUse">
            <stop stop-color="#586FFF"/>
            <stop offset="1" stop-color="#FFC31F"/>
        </linearGradient>
        <linearGradient id="paint2_linear_1_4" x1="65.7432" y1="120.057" x2="392.743" y2="120.057" gradientUnits="userSpaceOnUse">
            <stop stop-color="#586FFF"/>
            <stop offset="1" stop-color="#FFC31F"/>
        </linearGradient>
        <linearGradient id="paint3_linear_1_4" x1="65.7432" y1="120.057" x2="392.743" y2="120.057" gradientUnits="userSpaceOnUse">
            <stop stop-color="#586FFF"/>
            <stop offset="1" stop-color="#FFC31F"/>
        </linearGradient>
        <linearGradient id="paint4_linear_1_4" x1="65.7432" y1="120.057" x2="392.743" y2="120.057" gradientUnits="userSpaceOnUse">
            <stop stop-color="#586FFF"/>
            <stop offset="1" stop-color="#FFC31F"/>
        </linearGradient>
    </defs>
</svg>